# xmcd CD Database Entry
#
# Track frame offsets:
# 150
# 6032
# 26120
# 44014
# 60726
# 84390
# 102490
# 124808
# 142904
# 160492
# 177291
# 192818
# 212473
#
# Disc length: 3147 seconds
#
# Revision: 1
# Processed by: cddbd v1.4PL0 Copyright (c) Steve Scherf et al.
# Submitted via: tcd 2.0b
#
DISCID=b00c490d
DTITLE=Sconosciuto - Sconosciuto
DYEAR=1900
DGENRE=
TTITLE0=Traccia 1
TTITLE1=Traccia 2
TTITLE2=Traccia 3
TTITLE3=Traccia 4
TTITLE4=Traccia 5
TTITLE5=Traccia 6
TTITLE6=Traccia 7
TTITLE7=Traccia 8
TTITLE8=Traccia 9
TTITLE9=Traccia 10
TTITLE10=Traccia 11
TTITLE11=Traccia 12
TTITLE12=Traccia 13
EXTD=
EXTT0=
EXTT1=
EXTT2=
EXTT3=
EXTT4=
EXTT5=
EXTT6=
EXTT7=
EXTT8=
EXTT9=
EXTT10=
EXTT11=
EXTT12=
PLAYORDER=
